<?xml version="1.0" standalone="no"?>
<!DOCTYPE svg PUBLIC "-//W3C//DTD SVG 20010904//EN" "http://www.w3.org/TR/2001/REC-SVG-20010904/DTD/svg10.dtd">
<svg version="1.0" xmlns="http://www.w3.org/2000/svg"
    width="866.000000pt" height="649.000000pt" viewBox="0 0 866.000000 649.000000"
    preserveAspectRatio="xMidYMid meet">

    <g transform="translate(0.000000,649.000000) scale(0.100000,-0.100000)"
        fill="#95c11e" stroke="none">
        <path
            d="M4198 5925 c-10 -13 -18 -29 -18 -35 0 -6 -6 -21 -14 -33 -7 -12 -19
-58 -26 -103 -13 -86 -4 -166 25 -229 8 -16 16 -37 20 -45 16 -40 124 -190
137 -190 4 0 8 -5 8 -10 0 -13 102 -120 314 -329 535 -527 606 -608 701 -798
81 -161 110 -306 102 -503 -3 -69 -8 -134 -12 -145 -4 -13 -1 -11 8 5 16 28
33 119 43 230 11 141 -37 352 -118 515 -35 71 -143 252 -158 265 -3 3 -17 21
-30 40 -64 93 -270 320 -448 494 -140 137 -338 334 -374 374 -30 32 -118 159
-118 169 0 3 -11 30 -25 59 -38 80 -41 129 -15 213 12 40 20 74 19 76 -2 2
-12 -7 -21 -20z" />
        <path
            d="M3972 5863 c-76 -63 -156 -185 -192 -291 -72 -216 -30 -437 123 -642
90 -120 234 -260 412 -400 39 -30 76 -60 83 -67 8 -7 35 -27 60 -45 26 -17 49
-35 52 -38 3 -4 30 -24 60 -45 30 -21 57 -41 60 -45 3 -3 34 -28 70 -55 265
-199 389 -342 439 -505 45 -142 16 -441 -56 -573 -16 -30 -13 -46 5 -24 15 18
71 159 94 237 13 46 19 98 19 180 1 99 -3 126 -26 195 -42 124 -96 207 -209
320 -110 110 -154 150 -261 237 -38 31 -83 69 -100 83 -16 14 -41 36 -55 47
-25 21 -153 134 -223 198 -79 71 -190 187 -230 240 -23 30 -48 59 -54 63 -7 4
-13 15 -13 22 0 8 -4 15 -8 15 -5 0 -14 10 -21 23 -6 12 -25 45 -41 72 -17 28
-35 61 -40 75 -6 14 -14 32 -19 40 -24 44 -45 142 -45 220 -1 83 8 130 44 241
18 54 100 220 122 246 21 26 -8 12 -50 -24z" />
        <path
            d="M4985 5829 c11 -7 72 -46 135 -88 317 -208 620 -625 739 -1016 70
-229 84 -323 84 -550 0 -151 -4 -214 -21 -306 -11 -64 -25 -127 -30 -140 -6
-13 -24 -67 -41 -119 -35 -109 -159 -356 -190 -380 -3 -3 -18 -23 -33 -45 -15
-22 -39 -53 -53 -69 -33 -39 -32 -56 2 -25 52 48 65 61 143 155 77 91 170 225
170 243 0 5 3 11 8 13 13 5 79 150 105 228 38 117 55 203 72 364 14 136 14
162 0 280 -30 253 -91 453 -201 661 -144 272 -390 528 -666 693 -87 52 -176
95 -218 106 -23 6 -23 6 -5 -5z" />
        <path
            d="M3265 5767 c-44 -23 -92 -51 -107 -62 -14 -11 -36 -27 -48 -35 -115
-76 -323 -278 -405 -394 -11 -16 -25 -33 -30 -40 -57 -64 -169 -277 -223 -421
-81 -220 -96 -311 -96 -585 -1 -242 9 -314 61 -470 22 -68 119 -278 133 -290
3 -3 17 -23 30 -45 27 -45 23 -39 87 -119 71 -87 221 -241 229 -233 6 6 -122
179 -138 185 -4 2 -8 9 -8 15 0 6 -6 18 -14 26 -36 40 -148 281 -180 386 -83
273 -94 617 -29 900 37 161 109 362 169 472 125 227 219 358 358 497 108 109
161 151 258 211 92 57 60 58 -47 2z" />
        <path
            d="M4460 5755 c0 -26 104 -203 127 -218 7 -4 13 -14 13 -22 0 -7 3 -15
8 -17 4 -1 25 -25 47 -53 46 -57 45 -55 277 -296 292 -304 429 -483 552 -727
65 -128 96 -254 97 -402 0 -70 2 -81 11 -60 15 34 15 198 0 290 -40 246 -133
447 -320 695 -72 95 -404 434 -688 702 -121 114 -124 117 -124 108z" />
        <path
            d="M4891 5596 c153 -154 305 -318 419 -451 23 -27 53 -62 65 -77 13 -14
40 -50 61 -80 20 -29 40 -55 43 -58 3 -3 11 -14 18 -25 7 -11 31 -51 53 -88
93 -153 157 -295 192 -425 16 -61 20 -111 22 -237 0 -88 2 -139 4 -112 2 26 7
45 11 42 5 -2 12 41 15 98 4 56 11 142 17 190 7 70 6 108 -6 180 -17 95 -39
173 -62 217 -7 14 -13 28 -13 33 0 13 -91 158 -148 237 -119 163 -384 393
-587 509 -75 43 -121 64 -104 47z" />
        <path
            d="M3287 5478 c-55 -84 -115 -223 -132 -308 -27 -129 -25 -385 3 -512
57 -256 163 -440 376 -654 110 -109 265 -239 332 -278 37 -22 52 -46 28 -46
-22 0 -181 81 -277 140 -45 28 -91 57 -101 63 -22 13 -22 13 -91 64 -48 36
-95 77 -175 153 -141 134 -265 354 -300 533 -7 36 -15 55 -22 51 -16 -10 -3
-341 17 -439 20 -99 88 -376 116 -470 11 -38 27 -95 35 -125 27 -95 135 -376
171 -445 8 -16 33 -64 55 -105 21 -42 59 -102 83 -135 50 -66 48 -80 -14 -91
-20 -3 -65 -12 -101 -19 -89 -19 -233 -47 -450 -90 -131 -26 -323 -67 -425
-91 -33 -7 -118 -27 -190 -44 -71 -16 -143 -34 -160 -39 -16 -5 -83 -21 -148
-36 -133 -32 -144 -29 -149 35 -3 33 -1 35 44 50 26 8 50 18 54 22 6 7 -30
123 -57 183 -4 11 -18 45 -29 75 -11 30 -27 69 -34 85 -8 17 -29 64 -47 105
-60 135 -113 214 -150 226 -44 15 -53 54 -44 193 6 99 16 141 34 141 15 0 89
-79 125 -135 87 -130 217 -434 324 -758 11 -32 24 -63 30 -69 11 -11 68 -2 78
13 6 10 -8 60 -73 254 -81 245 -114 329 -202 505 -68 135 -103 193 -140 229
-41 40 -129 93 -154 94 -27 0 -199 -50 -277 -81 -122 -48 -140 -66 -140 -139
0 -82 16 -69 -297 -222 -32 -15 -33 -18 -32 -76 0 -33 4 -82 9 -110 7 -44 5
-53 -13 -72 -11 -13 -26 -23 -32 -23 -13 0 -167 -79 -224 -115 -49 -30 -50
-38 -21 -175 11 -52 25 -118 31 -146 13 -70 77 -323 84 -334 14 -23 22 -101
11 -115 -6 -8 -47 -24 -91 -36 -152 -40 -180 -48 -230 -62 -27 -8 -67 -21 -88
-30 -35 -15 -37 -18 -37 -62 0 -57 26 -143 52 -170 31 -33 63 -29 365 41 148
34 161 33 177 -26 12 -42 36 -98 115 -264 76 -160 126 -243 150 -251 10 -3 61
2 112 11 159 27 207 29 229 9 11 -10 20 -22 20 -27 0 -8 36 -65 50 -78 3 -3
17 -22 33 -42 15 -20 36 -40 48 -43 19 -6 175 26 227 46 46 18 65 10 131 -59
37 -37 92 -85 124 -106 l57 -39 118 38 c141 47 213 79 241 108 23 25 51 142
51 213 0 29 4 44 13 44 6 0 63 -49 125 -109 346 -335 728 -537 1187 -625 283
-54 707 -38 970 38 28 8 68 20 90 26 22 6 49 15 60 20 11 5 43 17 70 26 74 24
282 125 382 185 152 91 336 239 472 382 36 37 70 67 76 67 8 0 14 -35 18 -103
8 -136 22 -166 96 -203 68 -33 256 -94 292 -94 34 0 97 46 183 132 l70 70 55
-12 c31 -7 86 -21 123 -31 36 -10 78 -19 93 -19 34 0 89 53 141 138 l41 67 64
-1 c35 0 96 -5 134 -12 39 -7 87 -15 107 -18 31 -5 40 -3 62 20 20 22 135 242
167 321 4 11 18 45 30 75 60 153 54 145 96 144 21 0 72 -8 113 -17 156 -34
286 -57 326 -57 32 0 45 5 56 23 29 46 49 116 46 163 -3 46 -4 48 -48 65 -25
10 -70 24 -100 33 -30 8 -89 24 -130 36 -41 11 -91 25 -110 30 -87 23 -82 20
-77 53 3 18 12 57 21 87 24 78 56 198 65 245 5 22 21 96 35 165 44 208 43 206
32 222 -13 16 -159 91 -233 119 -76 29 -76 31 -64 155 7 68 7 111 1 119 -12
14 -132 73 -267 131 -47 20 -48 22 -58 109 -9 74 -17 90 -58 112 -81 44 -300
112 -360 113 -54 0 -174 -98 -232 -190 -51 -80 -137 -259 -169 -350 -8 -25
-31 -90 -51 -145 -20 -55 -40 -113 -44 -130 -5 -16 -13 -41 -19 -55 -27 -64
-61 -195 -53 -203 16 -16 82 -14 92 3 4 8 16 42 25 75 15 51 95 269 160 435
57 145 175 342 242 405 l27 26 18 -22 c15 -19 17 -40 15 -173 l-3 -151 -27 0
c-15 -1 -29 -3 -31 -5 -29 -33 -117 -201 -161 -310 -15 -36 -31 -74 -36 -85
-39 -90 -87 -250 -79 -261 5 -6 27 -16 49 -23 34 -10 40 -16 40 -39 0 -15 -7
-37 -15 -49 -17 -24 -26 -24 -135 2 -30 7 -84 20 -120 28 -36 9 -94 22 -130
30 -36 9 -99 23 -140 31 -41 9 -102 23 -135 30 -118 28 -191 44 -270 61 -44 9
-107 23 -140 30 -113 26 -432 91 -517 106 -82 14 -83 19 -35 117 38 75 38 67
-20 187 -32 68 -148 205 -173 205 -5 0 -10 4 -10 8 0 10 -96 82 -110 82 -5 0
-10 4 -10 9 0 5 -9 13 -20 16 -11 3 -26 12 -33 18 -6 7 -44 28 -82 47 -38 19
-76 41 -83 48 -7 6 -19 12 -25 12 -12 0 -48 17 -337 158 -190 94 -213 107
-322 189 -221 166 -346 327 -435 562 -63 165 -93 344 -93 563 0 178 10 258 46
354 25 66 14 83 -19 32z m-1816 -1815 c0 -10 0 -65 -1 -123 -1 -103 21 -351
40 -460 12 -65 59 -300 70 -350 4 -19 18 -71 30 -115 12 -44 26 -93 30 -110
12 -52 120 -365 167 -485 104 -266 300 -607 356 -618 15 -3 17 7 17 104 0 59
-5 133 -10 163 -32 174 -62 323 -76 371 -9 30 -21 75 -28 100 l-13 45 -69 -3
-70 -3 -12 35 c-7 20 -11 40 -8 45 3 5 30 16 59 24 49 15 82 23 255 62 37 9
92 22 122 30 30 8 125 28 210 45 85 17 180 38 210 45 30 8 69 16 85 19 17 3
73 15 125 26 52 12 118 25 145 30 28 6 93 19 145 31 52 11 115 25 140 29 66
13 232 49 252 56 12 3 39 -15 85 -58 145 -134 270 -223 357 -252 73 -24 200
-21 273 6 48 18 165 86 183 107 3 3 28 24 55 46 28 21 74 63 103 92 55 55 66
59 135 44 23 -5 78 -16 122 -25 44 -10 109 -23 145 -31 63 -14 140 -29 293
-59 189 -38 316 -65 492 -107 72 -17 157 -37 190 -44 33 -8 89 -20 125 -29 36
-8 119 -27 185 -42 142 -31 154 -39 135 -86 -8 -18 -18 -36 -23 -39 -5 -4 -38
-4 -72 -1 l-63 5 -30 -99 c-60 -200 -90 -349 -98 -495 -12 -199 10 -234 83
-136 22 28 42 59 46 67 4 8 17 31 29 50 88 144 238 492 322 745 18 55 48 152
66 215 18 63 38 135 46 160 19 67 65 276 75 345 30 211 38 309 39 463 0 139 3
174 14 178 13 5 130 -37 204 -73 l32 -16 0 -89 c0 -167 -42 -432 -115 -738 -9
-36 -19 -76 -22 -90 -3 -14 -17 -63 -30 -110 -14 -47 -28 -98 -32 -115 -11
-44 -70 -217 -81 -237 -6 -10 -10 -23 -10 -29 0 -6 -6 -25 -14 -42 -7 -18 -20
-50 -29 -72 -24 -63 -57 -148 -66 -170 -5 -11 -17 -40 -27 -65 -9 -25 -26 -65
-36 -90 -11 -25 -23 -54 -27 -65 -83 -206 -209 -401 -326 -504 -41 -36 -49
-37 -119 -14 -139 45 -171 60 -184 83 -16 30 -11 295 6 375 6 28 16 77 23 110
16 88 35 172 54 240 9 33 20 76 24 95 5 19 16 62 26 94 17 57 17 60 -1 73 -10
7 -26 13 -36 13 -10 0 -62 12 -115 26 -54 14 -123 32 -153 39 -125 29 -199 47
-260 61 -255 61 -262 62 -307 27 -170 -133 -433 -253 -683 -312 -185 -43 -212
-46 -445 -46 -237 0 -232 0 -455 52 -204 47 -406 136 -591 259 -126 83 -115
81 -244 51 -33 -8 -114 -26 -180 -41 -66 -15 -151 -34 -190 -43 -38 -8 -125
-28 -192 -44 -67 -16 -128 -29 -137 -29 -32 0 -32 -1 28 -210 27 -96 47 -190
71 -330 9 -52 20 -120 26 -151 5 -30 9 -109 9 -175 0 -107 -2 -123 -20 -142
-12 -12 -22 -22 -24 -22 -2 0 -48 -16 -102 -35 -54 -19 -106 -35 -116 -35 -37
0 -193 174 -254 283 -41 72 -154 310 -154 322 0 4 -7 21 -14 38 -15 32 -59
146 -118 302 -17 44 -34 89 -39 100 -14 33 -95 284 -119 370 -12 44 -26 91
-31 105 -11 34 -35 129 -54 220 -37 176 -45 219 -55 300 -6 46 -13 87 -15 90
-10 17 -24 293 -16 309 6 9 40 30 78 45 37 15 82 34 98 41 43 20 75 19 76 -2z
m-337 -391 c16 -179 82 -517 144 -732 13 -47 27 -98 32 -115 12 -47 118 -354
139 -400 5 -11 26 -60 47 -110 45 -106 180 -379 223 -450 36 -59 51 -91 51
-109 0 -14 -20 -23 -111 -50 -72 -21 -102 -20 -121 2 -30 33 -151 266 -207
397 -12 28 -26 58 -31 67 -5 9 -26 59 -45 110 -20 51 -40 102 -45 113 -14 35
-67 187 -89 255 -11 36 -30 94 -42 130 -11 36 -29 97 -39 135 -11 39 -25 95
-34 125 -40 151 -102 450 -111 534 -10 88 -4 99 63 125 31 12 66 27 77 33 28
15 68 26 81 21 7 -2 15 -39 18 -81z m6224 64 c53 -27 119 -56 129 -56 5 0 18
-8 27 -19 15 -16 15 -27 6 -82 -6 -35 -15 -93 -20 -129 -6 -36 -14 -83 -19
-105 -5 -22 -17 -74 -26 -115 -9 -41 -23 -100 -32 -130 -8 -30 -21 -77 -28
-105 -64 -235 -169 -547 -255 -755 -28 -69 -56 -138 -62 -155 -20 -52 -141
-280 -187 -350 -33 -50 -62 -54 -159 -25 -109 33 -111 35 -72 106 18 32 36 64
40 69 36 46 220 439 276 588 91 243 94 251 148 447 62 223 120 505 136 670 16
150 18 160 47 160 14 0 37 -6 51 -14z m-6540 -378 c5 -7 13 -33 17 -58 4 -25
10 -61 15 -80 10 -40 31 -132 55 -240 10 -41 23 -93 30 -115 7 -22 22 -76 34
-120 12 -44 26 -89 31 -100 5 -11 11 -29 13 -40 3 -11 22 -65 42 -120 20 -55
40 -113 45 -128 5 -16 13 -34 18 -40 5 -7 17 -34 27 -62 10 -27 51 -115 92
-195 40 -79 71 -150 69 -157 -9 -21 -189 -57 -216 -43 -27 15 -154 279 -227
475 -111 296 -199 605 -243 848 -16 89 -9 102 88 149 84 42 95 44 110 26z
m6840 -12 c15 -8 51 -25 80 -37 66 -30 71 -46 47 -164 -74 -371 -239 -865
-401 -1201 -20 -41 -43 -78 -50 -81 -15 -5 -195 14 -221 24 -20 8 -16 33 17
93 60 111 160 324 160 343 0 7 4 17 9 22 7 9 44 110 96 260 19 56 69 227 90
305 9 36 23 88 30 115 7 28 21 86 30 130 39 181 47 205 67 205 11 0 32 -6 46
-14z" />
        <path
            d="M3474 5285 c-16 -36 -10 -283 9 -365 69 -288 236 -528 501 -717 17
-12 36 -26 42 -30 29 -22 276 -168 319 -189 22 -10 42 -21 45 -24 10 -10 458
-230 469 -230 12 0 -17 32 -40 44 -17 8 -40 22 -96 59 -24 15 -47 27 -52 27
-5 0 -11 3 -13 8 -1 4 -48 34 -103 67 -55 33 -101 63 -103 67 -2 5 -8 8 -14 8
-21 0 -296 189 -392 270 -38 32 -160 153 -208 207 -58 65 -186 260 -228 348
-63 131 -89 219 -114 390 -10 62 -15 76 -22 60z" />
        <path
            d="M2843 5093 c-10 -16 -21 -30 -24 -33 -11 -8 -94 -171 -119 -235 -13
-33 -27 -64 -31 -70 -4 -5 -10 -26 -14 -45 -4 -19 -11 -41 -15 -50 -4 -8 -16
-51 -26 -95 -26 -108 -27 -395 -2 -470 9 -27 24 -77 33 -110 10 -33 21 -64 25
-70 4 -5 11 -21 15 -35 13 -46 102 -216 151 -291 27 -41 101 -126 164 -189
129 -129 171 -166 203 -176 20 -6 21 -5 7 11 -8 10 -38 42 -67 71 -28 29 -64
70 -80 91 -15 21 -30 40 -33 43 -4 3 -17 23 -30 45 -13 22 -27 42 -30 45 -10
9 -118 233 -135 280 -101 282 -136 444 -137 625 0 231 59 468 169 678 11 20
-9 4 -24 -20z" />
    </g>
</svg>